<svg width="30" height="30" viewBox="0 0 30 30" fill="none" xmlns="http://www.w3.org/2000/svg">
<path d="M4.875 23.6845C2.18261 23.6845 0 21.387 0 18.5529V5.13164C0 2.29751 2.18261 0 4.875 0H25.125C27.8174 0 30 2.29751 30 5.13164V18.5529C30 21.387 27.8174 23.6845 25.125 23.6845H16.5187L8.99802 29.6067C8.16878 30.2596 6.99375 30.0812 6.37352 29.2083C6.13104 28.8671 6 28.4523 6 28.0265L5.99882 23.6845H4.875ZM15.7703 21.3161H25.125C26.5747 21.3161 27.75 20.0789 27.75 18.5529V5.13164C27.75 3.60557 26.5747 2.36845 25.125 2.36845H4.875C3.42525 2.36845 2.25 3.60557 2.25 5.13164V18.5529C2.25 20.0789 3.42525 21.3161 4.875 21.3161H8.24818L8.2485 22.4999L8.24979 27.2381L15.7703 21.3161Z" fill="#F5CB5C"/>
</svg>
