<svg width="30" height="30" viewBox="0 0 30 30" fill="none" xmlns="http://www.w3.org/2000/svg">
<path d="M12.3598 29.1954C13.1919 29.8289 14.1648 30 14.9847 30C15.9392 30 16.6796 29.7656 16.7347 29.7466C17.0467 29.6452 17.2609 29.3474 17.2609 29.0053V23.5882C17.2609 19.3242 22.0396 17.8733 22.2415 17.8099C22.3027 17.7909 22.3577 17.7719 22.4067 17.7402C22.7616 18.4752 23.4958 18.982 24.3402 18.982H27.8462C29.0332 18.982 30 17.981 30 16.7518V3.58606C30 2.35692 29.0332 1.35586 27.8462 1.35586H25.8209C25.4049 1.35586 25.0683 1.70433 25.0683 2.13516C25.0683 2.566 25.4049 2.9018 25.8148 2.9018H27.8401C28.2011 2.9018 28.4948 3.20591 28.4948 3.57973V16.7518C28.4948 17.1257 28.2011 17.4298 27.8401 17.4298H24.3341C23.9731 17.4298 23.6794 17.1257 23.6794 16.7518V4.32735C23.6794 1.94509 21.8071 0 19.5003 0H6.69998C3.8609 0 2.05588 1.5396 1.73771 4.20063L0.0122374 15.415C0.0061187 15.453 0 15.4974 0 15.5354V15.6684C0 18.0507 1.87232 19.9958 4.17907 19.9958H10.6404V24.8237C10.6465 26.8638 11.2217 28.3337 12.3598 29.1954ZM4.18519 18.4498C2.71059 18.4498 1.5052 17.208 1.5052 15.6748V15.6051L3.22456 4.42239C3.45095 2.52165 4.61962 1.55227 6.69998 1.55227H19.5003C20.9749 1.55227 22.1803 2.79409 22.1803 4.32735V16.3083C22.0702 16.283 21.9539 16.2893 21.8377 16.321C21.5868 16.3907 15.7618 18.1394 15.7618 23.5945V28.3844C15.1254 28.4921 14.0363 28.5428 13.247 27.9472C12.5189 27.3897 12.1456 26.3442 12.1456 24.8237V19.2228C12.1456 18.792 11.8091 18.4435 11.393 18.4435H4.18519V18.4498Z" fill="#F5CB5C"/>
</svg>
