<svg width="30" height="30" viewBox="0 0 30 30" fill="none" xmlns="http://www.w3.org/2000/svg">
<path d="M29.9939 14.3261C29.9939 11.944 28.1212 9.99903 25.814 9.99903H19.3513V5.17776C19.3513 3.13775 18.776 1.66793 17.6377 0.806312C15.8384 -0.562142 13.366 0.217117 13.2619 0.255129C12.9498 0.356496 12.7356 0.654262 12.7356 0.996375V6.41317C12.7356 10.6769 7.95594 12.1277 7.75398 12.1911C7.69278 12.2101 7.6377 12.2291 7.58874 12.2608C7.23378 11.5259 6.49939 11.019 5.65483 11.019H2.15422C0.966952 11.019 0 12.02 0 13.2491V26.4205C0 27.6496 0.966952 28.6506 2.15422 28.6506H4.17993C4.59608 28.6506 4.93268 28.3021 4.93268 27.8713C4.93268 27.4405 4.58996 27.0984 4.17993 27.0984H2.15422C1.79315 27.0984 1.49939 26.7943 1.49939 26.4205V13.2491C1.49939 12.8753 1.79315 12.5712 2.15422 12.5712H5.66095C6.02203 12.5712 6.31579 12.8753 6.31579 13.2491V25.6729C6.31579 28.055 8.18849 30 10.4957 30H23.2987C26.1383 30 27.9437 28.4605 28.2619 25.7996L29.9878 14.5859C29.9939 14.5479 30 14.5035 30 14.4655V14.3261H29.9939ZM28.4945 14.3958L26.7748 25.5779C26.5483 27.4785 25.3794 28.4478 23.2987 28.4478H22.8213H10.4957C9.02081 28.4478 7.81518 27.2061 7.81518 25.6729V13.6926C7.92534 13.7179 8.04162 13.7116 8.1579 13.6799C8.40881 13.6102 14.235 11.8616 14.235 6.40684V1.61725C14.8715 1.51588 15.9608 1.45886 16.7503 2.05439C17.4786 2.61191 17.8519 3.65726 17.8519 5.17776V10.7783C17.8519 11.2091 18.1885 11.5575 18.6047 11.5575H25.8201C27.295 11.5575 28.5006 12.7993 28.5006 14.3325V14.3958H28.4945Z" fill="#F5CB5C"/>
</svg>
