<svg width="44" height="44" viewBox="0 0 44 44" fill="none" xmlns="http://www.w3.org/2000/svg">
<path d="M22.0002 6.58551C16.8678 6.58551 12.6924 10.7609 12.6924 15.8933C12.6924 18.3842 13.6747 21.2107 15.3201 23.4542C17.1811 25.9918 19.5536 27.3894 22.0002 27.3894C24.4469 27.3894 26.8192 25.992 28.6804 23.4542C30.3258 21.2107 31.3081 18.3842 31.3081 15.8933C31.3081 10.7609 27.1325 6.58551 22.0002 6.58551ZM22.0002 25.405C20.2279 25.405 18.3764 24.2663 16.9203 22.2806C15.5365 20.3938 14.6768 17.9463 14.6768 15.8933C14.6768 11.8552 17.9621 8.56997 22.0002 8.56997C26.0383 8.56997 29.3235 11.8552 29.3235 15.8933C29.3236 20.0859 25.8754 25.405 22.0002 25.405Z" fill="#F5CB5C"/>
<g filter="url(#filter0_d)">
<path d="M22 0C9.86925 0 0 9.86912 0 22C0 34.1307 9.86912 44 22 44C34.1309 44 44 34.1309 44 22C44 9.86912 34.1307 0 22 0ZM22 42.0155C18.018 42.0154 14.3041 40.8462 11.183 38.8335C11.2915 35.7948 12.6671 32.9459 14.9963 30.9679C15.9219 30.1819 17.2734 30.0961 18.3596 30.7542C19.5328 31.4652 20.7577 31.8257 22.0004 31.8257C23.2428 31.8257 24.4673 31.4653 25.64 30.7548C26.725 30.0973 28.073 30.1799 28.9942 30.9605C31.3251 32.9357 32.7085 35.7928 32.8169 38.8338C29.6957 40.8463 25.9819 42.0155 22 42.0155ZM34.6875 37.469C34.2589 34.3623 32.7015 31.5009 30.2771 29.4465C28.704 28.1137 26.4272 27.9574 24.6116 29.0577C22.8951 30.0977 21.1049 30.0975 19.3881 29.0571C17.5703 27.9555 15.2893 28.1157 13.7117 29.4554C11.2893 31.5124 9.73815 34.3656 9.31083 37.4677C4.84063 33.7938 1.98446 28.2243 1.98446 22.0001C1.98446 10.9634 10.9635 1.98446 22 1.98446C33.0366 1.98446 42.0155 10.9634 42.0155 22C42.0155 28.225 39.1587 33.7951 34.6875 37.469Z" fill="#F5CB5C"/>
</g>
<defs>
<filter id="filter0_d" x="0" y="0" width="44" height="44" filterUnits="userSpaceOnUse" color-interpolation-filters="sRGB">
<feFlood flood-opacity="0" result="BackgroundImageFix"/>
<feColorMatrix in="SourceAlpha" type="matrix" values="0 0 0 0 0 0 0 0 0 0 0 0 0 0 0 0 0 0 127 0"/>
<feOffset/>
<feColorMatrix type="matrix" values="0 0 0 0 0.988235 0 0 0 0 0.639216 0 0 0 0 0.0666667 0 0 0 0.5 0"/>
<feBlend mode="normal" in2="BackgroundImageFix" result="effect1_dropShadow"/>
<feBlend mode="normal" in="SourceGraphic" in2="effect1_dropShadow" result="shape"/>
</filter>
</defs>
</svg>
