<svg width="21" height="20" viewBox="0 0 21 20" fill="none" xmlns="http://www.w3.org/2000/svg">
<path d="M0 8.32275C0 12.9142 3.73541 16.6455 8.32275 16.6455C10.4362 16.6455 12.3694 15.8509 13.8399 14.5484L19.144 19.8526C19.2423 19.9509 19.3692 20 19.5003 20C19.6314 20 19.7583 19.9509 19.8566 19.8526C20.0532 19.6559 20.0532 19.3406 19.8566 19.144L14.5484 13.8399C15.8509 12.3694 16.6455 10.4403 16.6455 8.32275C16.6455 3.73131 12.9101 0 8.32275 0C3.73541 0 0 3.73131 0 8.32275ZM15.642 8.32275C15.642 12.3572 12.3572 15.642 8.32275 15.642C4.28835 15.642 1.00348 12.3572 1.00348 8.32275C1.00348 4.28835 4.28835 1.00348 8.32275 1.00348C12.3572 1.00348 15.642 4.28425 15.642 8.32275Z" fill="#F5CB5C"/>
</svg>
